<?xml version="1.0" encoding="UTF-8" standalone="no"?>
<svg
   xmlns:dc="http://purl.org/dc/elements/1.1/"
   xmlns:cc="http://creativecommons.org/ns#"
   xmlns:rdf="http://www.w3.org/1999/02/22-rdf-syntax-ns#"
   xmlns:svg="http://www.w3.org/2000/svg"
   xmlns="http://www.w3.org/2000/svg"
   xml:space="preserve"
   id="svg2"
   viewBox="0 0 47.5 47.5"
   version="1.1"><metadata
     id="metadata41"><rdf:RDF><cc:Work
         rdf:about=""><dc:format>image/svg+xml</dc:format><dc:type
           rdf:resource="http://purl.org/dc/dcmitype/StillImage" /><dc:title></dc:title></cc:Work></rdf:RDF></metadata><defs
     id="defs6"><clipPath
       id="clipPath18"><path
         id="path20"
         d="M 0,38 38,38 38,0 0,0 0,38 z" /></clipPath></defs><g
     id="g12"
     transform="matrix(1.0862159,0,0,-1.0661697,6.863034,43.829324)"><g
       id="g14"><g
         id="g16"
         clip-path="url(#clipPath18)"><g
           id="g22"
           transform="translate(32,5)"><path
             style="fill:#ccd6dd;fill-opacity:1;fill-rule:nonzero;stroke:none"
             id="path24"
             d="m 0,0 c 0,-2.209 -1.791,-4 -4,-4 h -22 c -2.209,0 -4,1.791 -4,4 v 28 c 0,2.209 1.791,4 4,4 h 22 c 2.209,0 4,-1.791 4,-4 z" /></g><g
           id="g26"
           transform="translate(28,13)"><path
             style="fill:#99aab5;fill-opacity:1;fill-rule:nonzero;stroke:none"
             id="path28"
             d="m 0,0 c 0,-0.553 -0.447,-1 -1,-1 h -20 c -0.552,0 -1,0.447 -1,1 0,0.553 0.448,1 1,1 H -1 C -0.447,1 0,0.553 0,0" /></g><g
           id="g30"
           transform="translate(12,9)"><path
             style="fill:#99aab5;fill-opacity:1;fill-rule:nonzero;stroke:none"
             id="path32"
             d="m 0,0 c 0,-0.553 -0.448,-1 -1,-1 h -4 c -0.552,0 -1,0.447 -1,1 0,0.553 0.448,1 1,1 h 4 C -0.448,1 0,0.553 0,0" /></g><g
           id="g34"
           transform="translate(28,29)"><path
             style="fill:#99aab5;fill-opacity:1;fill-rule:nonzero;stroke:none"
             id="path36"
             d="m 0,0 c 0,-0.552 -0.447,-1 -1,-1 h -20 c -0.552,0 -1,0.448 -1,1 0,0.552 0.448,1 1,1 H -1 C -0.447,1 0,0.552 0,0" /></g><g
           id="g38"
           transform="translate(28,25)"><path
             style="fill:#99aab5;fill-opacity:1;fill-rule:nonzero;stroke:none"
             id="path40"
             d="m 0,0 c 0,-0.553 -0.447,-1 -1,-1 h -20 c -0.552,0 -1,0.447 -1,1 0,0.553 0.448,1 1,1 H -1 C -0.447,1 0,0.553 0,0" /></g><g
           id="g42"
           transform="translate(28,21)"><path
             style="fill:#99aab5;fill-opacity:1;fill-rule:nonzero;stroke:none"
             id="path44"
             d="m 0,0 c 0,-0.553 -0.447,-1 -1,-1 h -20 c -0.552,0 -1,0.447 -1,1 0,0.553 0.448,1 1,1 H -1 C -0.447,1 0,0.553 0,0" /></g><g
           id="g46"
           transform="translate(28,17)"><path
             style="fill:#99aab5;fill-opacity:1;fill-rule:nonzero;stroke:none"
             id="path48"
             d="m 0,0 c 0,-0.553 -0.447,-1 -1,-1 h -20 c -0.552,0 -1,0.447 -1,1 0,0.553 0.448,1 1,1 H -1 C -0.447,1 0,0.553 0,0" /></g><g
           id="g50"
           transform="translate(32,30.728)"><path
             style="fill:#66757f;fill-opacity:1;fill-rule:nonzero;stroke:none"
             id="path52"
             d="m 0,0 c -0.827,0.535 -1.837,0.579 -2.521,0.022 l -0.792,-0.645 -1.484,-1.211 -0.099,-0.08 -2.376,-1.938 -11.879,-9.686 c -0.437,-0.357 -0.793,-1.218 -1.173,-2.074 -0.379,-0.849 -0.969,-2.851 -1.443,-4.39 -0.149,-0.25 -1.065,-1.846 -0.551,-2.454 0.519,-0.615 2.326,-0.009 2.568,0.077 1.626,0.173 3.731,0.373 4.648,0.58 0.925,0.211 1.854,0.394 2.291,0.752 0.008,0.005 0.01,0.017 0.018,0.023 l 11.857,9.666 0.792,0.646 0.144,0.117 z" /></g><g
           id="g54"
           transform="translate(19.1445,14.4736)"><path
             style="fill:#d99e82;fill-opacity:1;fill-rule:nonzero;stroke:none"
             id="path56"
             d="m 0,0 c 0,0 -1.274,1.881 -2.117,2.553 -0.672,0.843 -2.55,2.116 -2.55,2.116 -0.448,0.446 -1.191,0.48 -1.628,0.043 C -6.732,4.274 -7.088,3.346 -7.469,2.421 -7.94,1.275 -8.745,-1.733 -9.237,-3.331 c -0.083,-0.273 0.517,0.45 0.504,0.21 -0.01,-0.187 0.026,-0.394 0.073,-0.581 -0.085,-0.093 -0.145,-0.158 -0.145,-0.158 0.056,-0.019 0.128,-0.042 0.209,-0.068 0.025,-0.082 0.05,-0.154 0.068,-0.21 0,0 0.066,0.061 0.159,0.146 0.187,-0.047 0.394,-0.084 0.581,-0.074 0.24,0.013 -0.483,-0.587 -0.211,-0.503 1.598,0.493 4.608,1.296 5.753,1.767 0.924,0.381 1.854,0.737 2.291,1.174 C 0.482,-1.191 0.449,-0.448 0,0" /></g><g
           id="g58"
           transform="translate(26.3125,32.6489)"><path
             style="fill:#ea596e;fill-opacity:1;fill-rule:nonzero;stroke:none"
             id="path60"
             d="m 0,0 c -0.876,-0.875 -0.876,-2.293 0,-3.168 l 3.167,-3.168 c 0.876,-0.874 2.294,-0.874 3.168,0 l 3.169,3.168 c 0.874,0.875 0.874,2.293 0,3.168 L 6.335,3.167 c -0.874,0.875 -2.292,0.875 -3.168,0 z" /></g><g
           id="g62"
           transform="translate(12.8491,19.1855)"><path
             style="fill:#ffcc4d;fill-opacity:1;fill-rule:nonzero;stroke:none"
             id="path64"
             d="M 0,0 C 0,0 0.795,-0.795 3.17,-3.17 5.544,-5.544 6.334,-6.336 6.334,-6.336 L 18.215,5.543 11.878,11.879 Z" /></g><g
           id="g66"
           transform="translate(12.2979,10.2578)"><path
             style="fill:#292f33;fill-opacity:1;fill-rule:nonzero;stroke:none"
             id="path68"
             d="m 0,0 c 0,0 -2.06,-1.133 -2.616,-0.576 -0.557,0.557 0.581,2.611 0.581,2.611 0,0 1.952,-0.036 2.035,-2.035" /></g><g
           id="g70"
           transform="translate(28.6875,35.0249)"><path
             style="fill:#ccd6dd;fill-opacity:1;fill-rule:nonzero;stroke:none"
             id="path72"
             d="M 0,0 6.336,-6.336 2.377,-10.296 -3.96,-3.96 Z" /></g><g
           id="g74"
           transform="translate(27.1035,33.4409)"><path
             style="fill:#99aab5;fill-opacity:1;fill-rule:nonzero;stroke:none"
             id="path76"
             d="M 0,0 6.336,-6.335 7.129,-5.544 0.793,0.792 Z" /></g><g
           id="g78"
           transform="translate(25.5205,31.8569)"><path
             style="fill:#99aab5;fill-opacity:1;fill-rule:nonzero;stroke:none"
             id="path80"
             d="M 0,0 6.336,-6.336 7.127,-5.544 0.792,0.792 Z" /></g></g></g></g><g
     transform="matrix(0.86897274,0,0,0.85293577,8.7207138,3.2081349)"
     id="g4549"><ellipse
       style="fill:#040404;fill-opacity:1;stroke:none;stroke-width:121.87304688;stroke-miterlimit:4;stroke-dasharray:none;stroke-opacity:0.99435024"
       id="path4534"
       cx="3.2555752"
       cy="8.6999502"
       rx="2.4372337"
       ry="2.3660736" /><ellipse
       ry="2.3660736"
       rx="2.4372337"
       cy="18.164244"
       cx="3.0420947"
       id="ellipse4536"
       style="fill:#040404;fill-opacity:1;stroke:none;stroke-width:121.87304688;stroke-miterlimit:4;stroke-dasharray:none;stroke-opacity:0.99435024" /><ellipse
       style="fill:#040404;fill-opacity:1;stroke:none;stroke-width:121.87304688;stroke-miterlimit:4;stroke-dasharray:none;stroke-opacity:0.99435024"
       id="ellipse4538"
       cx="3.1132548"
       cy="29.229641"
       rx="2.4372337"
       ry="2.3660736" /><ellipse
       ry="2.3660736"
       rx="2.4372337"
       cy="35.384991"
       cx="2.7930343"
       id="ellipse4540"
       style="fill:#040404;fill-opacity:1;stroke:none;stroke-width:121.87304688;stroke-miterlimit:4;stroke-dasharray:none;stroke-opacity:0.99435024" /><ellipse
       style="fill:#040404;fill-opacity:1;stroke:none;stroke-width:121.87304688;stroke-miterlimit:4;stroke-dasharray:none;stroke-opacity:0.99435024"
       id="ellipse4542"
       cx="3.1844149"
       cy="42.109623"
       rx="2.4372337"
       ry="2.3660736" /></g><g
     id="text4520"
     style="fill:#85859c;fill-opacity:1;stroke:none;stroke-width:0.31434715"
     transform="matrix(0,-1.002876,0.99713223,0,1.8576798,-0.10674017)"
     aria-label="HTML"><path
       id="path4551"
       style="fill:#85859c;fill-opacity:1;stroke-width:0.31434715"
       d="m -40.485012,2.897593 q 0,-0.6035464 0.440085,-1.0310585 0.440086,-0.4275121 1.018485,-0.4275121 0.616121,0 1.031059,0.440086 0.427512,0.427512 0.427512,1.0310585 v 1.8232133 h 2.854272 V 2.9101669 q 0,-0.6035465 0.427512,-1.0310585 0.440086,-0.440086 1.043632,-0.440086 0.590973,0 1.018485,0.4275121 0.427512,0.4275121 0.427512,1.0310585 v 6.3623858 q 0,0.6035465 -0.427512,1.0310582 -0.414938,0.427512 -1.018485,0.427512 -0.603546,0 -1.031058,-0.414938 -0.427512,-0.4149379 -0.427512,-1.0436322 V 7.2481572 h -2.87942 v 2.0118216 q 0,0.6286943 -0.427512,1.0310582 -0.188608,0.201183 -0.477808,0.314348 -0.276625,0.113164 -0.540677,0.113164 -0.603546,0 -1.031058,-0.427512 -0.427512,-0.4275117 -0.427512,-1.0310582 z" /><path
       id="path4553"
       style="fill:#85859c;fill-opacity:1;stroke-width:0.31434715"
       d="m -25.383187,1.5396135 q 0.515529,0 0.880172,0.3772165 0.364642,0.3772166 0.364642,0.9053197 0,0.5281032 -0.364642,0.880172 -0.364643,0.3520687 -0.880172,0.3520687 h -1.056207 v 5.2181623 q 0,0.5909726 -0.414938,1.0059113 -0.414938,0.414938 -1.018485,0.414938 -0.603546,0 -1.031058,-0.414938 -0.414938,-0.4275126 -0.414938,-1.0310591 V 4.0292427 h -0.993337 q -0.528103,0 -0.880172,-0.3646427 -0.352069,-0.3646426 -0.352069,-0.8927458 0,-0.5281032 0.364643,-0.880172 0.364642,-0.3520687 0.880172,-0.3520687 z" /><path
       id="path4555"
       style="fill:#85859c;fill-opacity:1;stroke-width:0.31434715"
       d="m -23.324116,3.0233319 q 0.176034,-1.093928 1.144223,-1.4585707 0.402364,-0.1508866 0.767007,-0.1508866 0.641268,0 1.13165,0.3772166 0.490381,0.3646426 0.67899,0.9933369 l 0.930467,3.1560451 0.930468,-3.1560451 q 0.188608,-0.6161204 0.691563,-0.9933369 0.502956,-0.3772166 1.13165,-0.3772166 0.364643,0 0.767007,0.1508866 0.943041,0.3520688 1.144223,1.4585707 l 1.018485,5.9725953 q 0.02515,0.113165 0.02515,0.2389039 0,0.1131649 0,0.2389038 -0.0503,0.5155293 -0.465234,0.8675981 -0.414938,0.352069 -0.955615,0.352069 -0.22633,0 -0.477808,-0.07544 -0.855024,-0.289199 -0.955615,-1.156797 l -0.440086,-3.608705 -1.156797,3.7847394 q -0.251478,0.8424506 -0.792155,1.0184846 -0.276626,0.100591 -0.502956,0.100591 -0.880172,0 -1.207093,-1.1190756 L -21.085963,5.85246 -21.513475,9.461165 q -0.05029,0.3897904 -0.314347,0.704138 -0.251478,0.314347 -0.641268,0.452659 -0.251478,0.07544 -0.490382,0.07544 -0.540677,0 -0.943041,-0.339495 -0.402364,-0.339495 -0.465234,-0.8801721 -0.01257,-0.062869 -0.01257,-0.1886083 0,-0.062869 0,-0.1383127 0.02515,-0.1005911 0.02515,-0.1508867 z" /><path
       id="path4557"
       style="fill:#85859c;fill-opacity:1;stroke-width:0.31434715"
       d="m -12.463913,2.897593 q 0,-0.6035464 0.427512,-1.0310585 0.201182,-0.2011822 0.477807,-0.3143472 0.276626,-0.1131649 0.553251,-0.1131649 0.603547,0 1.0310588,0.440086 0.4275121,0.427512 0.4275121,1.0310585 v 5.1804406 h 2.1249866 q 0.5281031,0 0.8801719,0.3646427 0.3520688,0.3646427 0.3520688,0.9053197 0,0.5155293 -0.3646427,0.8801721 -0.3520687,0.352069 -0.867598,0.352069 h -3.5206875 q -0.67899,0 -1.106502,-0.427512 -0.414938,-0.4400864 -0.414938,-1.144224 z" /></g></svg>