<?xml version="1.0" encoding="UTF-8" standalone="no"?>
<!-- Created with Inkscape (http://www.inkscape.org/) -->

<svg
   xmlns:dc="http://purl.org/dc/elements/1.1/"
   xmlns:cc="http://creativecommons.org/ns#"
   xmlns:rdf="http://www.w3.org/1999/02/22-rdf-syntax-ns#"
   xmlns:svg="http://www.w3.org/2000/svg"
   xmlns="http://www.w3.org/2000/svg"
   xmlns:xlink="http://www.w3.org/1999/xlink"
   xmlns:sodipodi="http://sodipodi.sourceforge.net/DTD/sodipodi-0.dtd"
   xmlns:inkscape="http://www.inkscape.org/namespaces/inkscape"
   width="48"
   height="86"
   id="svg1307"
   sodipodi:version="0.32"
   inkscape:version="0.48.3.1 r9886"
   sodipodi:docname="faces.svg"
   inkscape:export-filename="/home/ulisse/Desktop/greasemonkey/greasemonkey.png"
   inkscape:export-xdpi="90"
   inkscape:export-ydpi="90"
   version="1.1">
  <defs
     id="defs1309">
    <linearGradient
       inkscape:collect="always"
       id="linearGradient3686">
      <stop
         style="stop-color:#3d280a;stop-opacity:1;"
         offset="0"
         id="stop3688" />
      <stop
         style="stop-color:#3d280a;stop-opacity:0;"
         offset="1"
         id="stop3690" />
    </linearGradient>
    <linearGradient
       inkscape:collect="always"
       id="linearGradient2305">
      <stop
         style="stop-color:#000000;stop-opacity:1;"
         offset="0"
         id="stop2307" />
      <stop
         style="stop-color:#000000;stop-opacity:0;"
         offset="1"
         id="stop2309" />
    </linearGradient>
    <linearGradient
       id="linearGradient2297"
       inkscape:collect="always">
      <stop
         id="stop2299"
         offset="0"
         style="stop-color:#a15702;stop-opacity:1" />
      <stop
         id="stop2301"
         offset="1"
         style="stop-color:#683c00;stop-opacity:1" />
    </linearGradient>
    <linearGradient
       id="linearGradient2251">
      <stop
         id="stop2253"
         offset="0"
         style="stop-color:#f6e1cf;stop-opacity:1;" />
      <stop
         style="stop-color:#e19d56;stop-opacity:1;"
         offset="0.5"
         id="stop3682" />
      <stop
         id="stop2255"
         offset="1"
         style="stop-color:#f4dcb7;stop-opacity:1" />
    </linearGradient>
    <linearGradient
       inkscape:collect="always"
       id="linearGradient2227">
      <stop
         style="stop-color:#8f5402;stop-opacity:1;"
         offset="0"
         id="stop2229" />
      <stop
         style="stop-color:#6e4001;stop-opacity:1"
         offset="1"
         id="stop2231" />
    </linearGradient>
    <linearGradient
       id="linearGradient2219">
      <stop
         style="stop-color:#ffffff;stop-opacity:1;"
         offset="0"
         id="stop2221" />
      <stop
         style="stop-color:#ffffff;stop-opacity:0.29963899;"
         offset="1"
         id="stop2223" />
    </linearGradient>
    <linearGradient
       id="linearGradient2311">
      <stop
         style="stop-color:#ffd93c;stop-opacity:1;"
         offset="0"
         id="stop2313" />
      <stop
         style="stop-color:#ffffff;stop-opacity:0;"
         offset="1"
         id="stop2315" />
    </linearGradient>
    <linearGradient
       id="linearGradient3101">
      <stop
         style="stop-color:#ffd93c;stop-opacity:1;"
         offset="0"
         id="stop3103" />
      <stop
         style="stop-color:#ffffff;stop-opacity:0;"
         offset="1"
         id="stop3105" />
    </linearGradient>
    <linearGradient
       id="linearGradient2337">
      <stop
         style="stop-color:#cc0000;stop-opacity:1;"
         offset="0"
         id="stop2339" />
      <stop
         id="stop2345"
         offset="0.27586207"
         style="stop-color:#c84a00;stop-opacity:1;" />
      <stop
         style="stop-color:#be0000;stop-opacity:1;"
         offset="1"
         id="stop2341" />
    </linearGradient>
    <linearGradient
       id="linearGradient3113">
      <stop
         style="stop-color:#cc0000;stop-opacity:1;"
         offset="0"
         id="stop3115" />
      <stop
         id="stop3117"
         offset="0.27586207"
         style="stop-color:#c84a00;stop-opacity:1;" />
      <stop
         style="stop-color:#be0000;stop-opacity:1;"
         offset="1"
         id="stop3119" />
    </linearGradient>
    <linearGradient
       id="linearGradient2102">
      <stop
         style="stop-color:#000000;stop-opacity:1;"
         offset="0"
         id="stop2104" />
      <stop
         style="stop-color:#000000;stop-opacity:0;"
         offset="1"
         id="stop2106" />
    </linearGradient>
    <linearGradient
       id="linearGradient3126">
      <stop
         style="stop-color:#000000;stop-opacity:1;"
         offset="0"
         id="stop3128" />
      <stop
         style="stop-color:#000000;stop-opacity:0;"
         offset="1"
         id="stop3130" />
    </linearGradient>
    <linearGradient
       id="linearGradient3133">
      <stop
         style="stop-color:#000000;stop-opacity:1;"
         offset="0"
         id="stop3135" />
      <stop
         style="stop-color:#000000;stop-opacity:0;"
         offset="1"
         id="stop3137" />
    </linearGradient>
    <linearGradient
       id="linearGradient3068">
      <stop
         style="stop-color:#cccccc;stop-opacity:1.0000000;"
         offset="0.0000000"
         id="stop3070" />
      <stop
         id="stop3076"
         offset="0.34579438"
         style="stop-color:#ffffff;stop-opacity:1.0000000;" />
      <stop
         style="stop-color:#ffffff;stop-opacity:1.0000000;"
         offset="0.72486681"
         id="stop3078" />
      <stop
         style="stop-color:#cecece;stop-opacity:1.0000000;"
         offset="1.0000000"
         id="stop3072" />
    </linearGradient>
    <linearGradient
       inkscape:collect="always"
       id="linearGradient2319">
      <stop
         style="stop-color:#f2d565;stop-opacity:1;"
         offset="0"
         id="stop2321" />
      <stop
         style="stop-color:#f2d565;stop-opacity:0;"
         offset="1"
         id="stop2323" />
    </linearGradient>
    <linearGradient
       id="linearGradient2291-2">
      <stop
         style="stop-color:#ffa107;stop-opacity:1;"
         offset="0"
         id="stop2293" />
      <stop
         style="stop-color:#cc0000;stop-opacity:1;"
         offset="1"
         id="stop2295" />
    </linearGradient>
    <linearGradient
       inkscape:collect="always"
       id="linearGradient4565">
      <stop
         style="stop-color:#000000;stop-opacity:1;"
         offset="0"
         id="stop4567" />
      <stop
         style="stop-color:#000000;stop-opacity:0;"
         offset="1"
         id="stop4569" />
    </linearGradient>
    <linearGradient
       inkscape:collect="always"
       xlink:href="#linearGradient2283"
       id="linearGradient2289"
       x1="39.125"
       y1="33.375"
       x2="46.625"
       y2="16.5"
       gradientUnits="userSpaceOnUse"
       gradientTransform="matrix(0.780746,0,0,0.780746,9.900195,9.256071)" />
    <linearGradient
       id="linearGradient2283">
      <stop
         style="stop-color:#730000;stop-opacity:1;"
         offset="0"
         id="stop2285" />
      <stop
         style="stop-color:#ff0202;stop-opacity:1;"
         offset="1"
         id="stop2287" />
    </linearGradient>
    <linearGradient
       inkscape:collect="always"
       xlink:href="#linearGradient2283"
       id="linearGradient3352"
       gradientUnits="userSpaceOnUse"
       gradientTransform="matrix(0.780746,0,0,0.780746,68.73824,8.97291)"
       x1="39.125"
       y1="33.375"
       x2="46.625"
       y2="16.5" />
    <radialGradient
       inkscape:collect="always"
       xlink:href="#linearGradient4565"
       id="radialGradient3354"
       gradientUnits="userSpaceOnUse"
       gradientTransform="matrix(1,0,0,0.333333,0,25.71429)"
       cx="24.714285"
       cy="38.57143"
       fx="24.714285"
       fy="38.57143"
       r="19.714285" />
    <radialGradient
       inkscape:collect="always"
       xlink:href="#linearGradient2291-2"
       id="radialGradient3356"
       gradientUnits="userSpaceOnUse"
       gradientTransform="matrix(0.771216,0,0,0.771216,6.991896,3.591695)"
       cx="30.561104"
       cy="15.699058"
       fx="30.561104"
       fy="15.699058"
       r="8.9020796" />
    <linearGradient
       inkscape:collect="always"
       xlink:href="#linearGradient2319"
       id="linearGradient3358"
       gradientUnits="userSpaceOnUse"
       x1="28.764467"
       y1="12.221258"
       x2="38.070023"
       y2="38.297359" />
    <linearGradient
       inkscape:collect="always"
       xlink:href="#linearGradient3068"
       id="linearGradient3360"
       gradientUnits="userSpaceOnUse"
       gradientTransform="matrix(1.048897,0,0,1,53.6156,-0.28316)"
       x1="9.7892637"
       y1="29.629091"
       x2="38.390732"
       y2="29.629091" />
    <linearGradient
       inkscape:collect="always"
       xlink:href="#linearGradient2102"
       id="linearGradient3362"
       gradientUnits="userSpaceOnUse"
       gradientTransform="matrix(1,0,0,1.404523,65.38353,-8.24949)"
       x1="14"
       y1="21.0625"
       x2="14"
       y2="34.305527" />
    <linearGradient
       inkscape:collect="always"
       xlink:href="#linearGradient2102"
       id="linearGradient3364"
       gradientUnits="userSpaceOnUse"
       gradientTransform="matrix(1,0,0,1.171895,57.38353,-3.42432)"
       x1="14"
       y1="21.0625"
       x2="13.5"
       y2="33.42667" />
    <linearGradient
       inkscape:collect="always"
       xlink:href="#linearGradient2102"
       id="linearGradient3366"
       gradientUnits="userSpaceOnUse"
       gradientTransform="matrix(1,0,0,1.159815,73.38355,-3.09821)"
       x1="14"
       y1="21.0625"
       x2="14.5"
       y2="33.431156" />
    <linearGradient
       inkscape:collect="always"
       xlink:href="#linearGradient2337"
       id="linearGradient3368"
       gradientUnits="userSpaceOnUse"
       gradientTransform="translate(58.83804,-0.28316)"
       x1="30.525612"
       y1="7.3609705"
       x2="32.311508"
       y2="9.4234705" />
    <linearGradient
       inkscape:collect="always"
       xlink:href="#linearGradient2337"
       id="linearGradient3370"
       gradientUnits="userSpaceOnUse"
       gradientTransform="translate(58.83804,-0.28316)"
       x1="10.400612"
       y1="7.6109705"
       x2="8.8115082"
       y2="9.6734705" />
    <linearGradient
       inkscape:collect="always"
       xlink:href="#linearGradient2311"
       id="linearGradient3372"
       gradientUnits="userSpaceOnUse"
       gradientTransform="translate(58.83804,-0.28316)"
       x1="32.098553"
       y1="6.1454587"
       x2="31.775375"
       y2="8.044363" />
    <linearGradient
       inkscape:collect="always"
       xlink:href="#linearGradient2311"
       id="linearGradient3374"
       gradientUnits="userSpaceOnUse"
       gradientTransform="translate(58.83804,-0.28316)"
       x1="7.2235508"
       y1="6.0204587"
       x2="8.0878754"
       y2="8.044363" />
    <radialGradient
       inkscape:collect="always"
       xlink:href="#linearGradient2305"
       id="radialGradient3376"
       gradientUnits="userSpaceOnUse"
       gradientTransform="matrix(1,0,0,0.267857,0,27.63839)"
       cx="-6"
       cy="37.75"
       fx="-6"
       fy="37.75"
       r="14" />
    <linearGradient
       inkscape:collect="always"
       xlink:href="#linearGradient2227"
       id="linearGradient3378"
       gradientUnits="userSpaceOnUse"
       x1="-10.735215"
       y1="11.428152"
       x2="-9.25"
       y2="18.440943" />
    <linearGradient
       inkscape:collect="always"
       xlink:href="#linearGradient2219"
       id="linearGradient3380"
       gradientUnits="userSpaceOnUse"
       x1="-5.2680058"
       y1="20.641153"
       x2="-12.272349"
       y2="8.6855774" />
    <radialGradient
       inkscape:collect="always"
       xlink:href="#linearGradient2251"
       id="radialGradient3382"
       gradientUnits="userSpaceOnUse"
       gradientTransform="matrix(3.556041,0,0,3.556041,7.834793,-46.7895)"
       cx="-3.0652061"
       cy="18.305458"
       fx="-3.0652061"
       fy="18.305458"
       r="5.3310089" />
    <linearGradient
       inkscape:collect="always"
       xlink:href="#linearGradient2227"
       id="linearGradient3384"
       gradientUnits="userSpaceOnUse"
       x1="-10.153608"
       y1="10.91142"
       x2="-7.9586563"
       y2="18.145666" />
    <linearGradient
       inkscape:collect="always"
       xlink:href="#linearGradient2219"
       id="linearGradient3386"
       gradientUnits="userSpaceOnUse"
       x1="-5.2680058"
       y1="20.641153"
       x2="-12.272349"
       y2="8.6855774" />
    <radialGradient
       inkscape:collect="always"
       xlink:href="#linearGradient2251"
       id="radialGradient3388"
       gradientUnits="userSpaceOnUse"
       gradientTransform="matrix(2.45184,1.174729,-1.324281,2.80558,46.03865,-21.18657)"
       cx="-14.822968"
       cy="20.156464"
       fx="-14.822968"
       fy="20.156464"
       r="5.3293829" />
    <radialGradient
       inkscape:collect="always"
       xlink:href="#linearGradient2297"
       id="radialGradient3390"
       gradientUnits="userSpaceOnUse"
       gradientTransform="matrix(1.635062,0,0,1.830454,-15.24149,-12.15138)"
       cx="24"
       cy="13.057613"
       fx="24"
       fy="13.057613"
       r="16.971834" />
    <linearGradient
       inkscape:collect="always"
       xlink:href="#linearGradient2219"
       id="linearGradient3392"
       gradientUnits="userSpaceOnUse"
       x1="24"
       y1="7.4000092"
       x2="24"
       y2="38.329697" />
    <radialGradient
       inkscape:collect="always"
       xlink:href="#linearGradient2251"
       id="radialGradient3394"
       gradientUnits="userSpaceOnUse"
       gradientTransform="matrix(2.783877,0,0,1.961686,-42.81308,-33.63393)"
       cx="24.00001"
       cy="32.820721"
       fx="24.00001"
       fy="32.820721"
       r="14.999994" />
    <radialGradient
       inkscape:collect="always"
       xlink:href="#linearGradient3686"
       id="radialGradient3396"
       gradientUnits="userSpaceOnUse"
       gradientTransform="matrix(1.838239,0,0,0.855268,-20.10762,3.134087)"
       cx="23.987946"
       cy="30.12611"
       fx="23.987946"
       fy="30.12611"
       r="10.987951" />
    <linearGradient
       inkscape:collect="always"
       xlink:href="#linearGradient2219"
       id="linearGradient3398"
       gradientUnits="userSpaceOnUse"
       x1="29.064308"
       y1="39.4202"
       x2="12.860207"
       y2="2.4916291" />
  </defs>
  <sodipodi:namedview
     id="base"
     pagecolor="#ffffff"
     bordercolor="#666"
     borderopacity="0.09019608"
     inkscape:pageopacity="0.0"
     inkscape:pageshadow="2"
     inkscape:zoom="5.6568542"
     inkscape:cx="52.118122"
     inkscape:cy="56.88493"
     inkscape:current-layer="layer1"
     showgrid="true"
     inkscape:grid-bbox="false"
     inkscape:document-units="px"
     inkscape:grid-points="false"
     inkscape:window-width="1387"
     inkscape:window-height="876"
     inkscape:window-x="53"
     inkscape:window-y="24"
     fill="#729fcf"
     showguides="true"
     inkscape:guide-bbox="true"
     inkscape:showpageshadow="false"
     showborder="true"
     fit-margin-top="0"
     fit-margin-left="0"
     fit-margin-right="0"
     fit-margin-bottom="0"
     inkscape:window-maximized="1">
    <inkscape:grid
       id="GridFromPre046Settings"
       type="xygrid"
       originx="-1.1266348px"
       originy="42.700518px"
       spacingx="0.5px"
       spacingy="0.5px"
       color="#3f3fff"
       empcolor="#3f3fff"
       opacity="0.15"
       empopacity="0.38"
       empspacing="2"
       visible="true"
       enabled="true"
       snapvisiblegridlinesonly="true" />
    <sodipodi:guide
       orientation="1,0"
       position="46.873365,62.700519"
       id="guide3419" />
    <sodipodi:guide
       orientation="1,0"
       position="2.8733652,56.700519"
       id="guide3421" />
    <sodipodi:guide
       orientation="1,0"
       position="104.87337,70.700519"
       id="guide3423" />
  </sodipodi:namedview>
  <metadata
     id="metadata1312">
    <rdf:RDF>
      <cc:Work
         rdf:about="">
        <dc:format>image/svg+xml</dc:format>
        <dc:type
           rdf:resource="http://purl.org/dc/dcmitype/StillImage" />
        <dc:creator>
          <cc:Agent>
            <dc:title>Ulisse Perusin</dc:title>
          </cc:Agent>
        </dc:creator>
        <dc:title></dc:title>
        <dc:language>emoticons monkey</dc:language>
        <cc:license
           rdf:resource="http://creativecommons.org/licenses/by-sa/2.5/" />
        <dc:date>18/05/2006</dc:date>
      </cc:Work>
      <cc:License
         rdf:about="http://creativecommons.org/licenses/by-sa/2.5/">
        <cc:permits
           rdf:resource="http://web.resource.org/cc/Reproduction" />
        <cc:permits
           rdf:resource="http://web.resource.org/cc/Distribution" />
        <cc:requires
           rdf:resource="http://web.resource.org/cc/Notice" />
        <cc:requires
           rdf:resource="http://web.resource.org/cc/Attribution" />
        <cc:permits
           rdf:resource="http://web.resource.org/cc/DerivativeWorks" />
        <cc:requires
           rdf:resource="http://web.resource.org/cc/ShareAlike" />
      </cc:License>
    </rdf:RDF>
  </metadata>
  <g
     id="layer1"
     inkscape:label="Layer 1"
     inkscape:groupmode="layer"
     transform="translate(-1.1266348,-4.7005242)">
     <view id="devil-view" viewBox="0 45 48 40"/>
     <view id="monkey-view" viewBox="0 0 48 41"/>
    <g
       id="g3336"
       transform="translate(0,-0.53209941)">
      <path
         transform="matrix(1.535714,0,0,1.51296,33.46429,-17.11425)"
         d="m 8,37.75 c 0,2.071068 -6.2680135,3.75 -14,3.75 -7.731986,0 -14,-1.678932 -14,-3.75 0,-2.071068 6.268014,-3.75 14,-3.75 7.7319865,0 14,1.678932 14,3.75 z"
         sodipodi:ry="3.75"
         sodipodi:rx="14"
         sodipodi:cy="37.75"
         sodipodi:cx="-6"
         id="path2303"
         style="opacity:0.48453608;color:#000000;fill:url(#radialGradient3376);fill-opacity:1;fill-rule:evenodd;stroke:none;stroke-width:1;marker:none;visibility:visible;display:inline;overflow:visible"
         sodipodi:type="arc" />
      <path
         transform="matrix(1.042105,0,0,1.368421,16.13946,0.81579)"
         d="m -4.5,14.75 c 0,2.623353 -2.1266474,4.75 -4.75,4.75 -2.623353,0 -4.75,-2.126647 -4.75,-4.75 0,-2.623353 2.126647,-4.75 4.75,-4.75 2.6233526,0 4.75,2.126647 4.75,4.75 z"
         sodipodi:ry="4.75"
         sodipodi:rx="4.75"
         sodipodi:cy="14.75"
         sodipodi:cx="-9.25"
         id="path2197"
         style="color:#000000;fill:url(#linearGradient3378);fill-opacity:1;fill-rule:evenodd;stroke:#3d280a;stroke-width:0.83740312;stroke-linecap:round;stroke-linejoin:round;stroke-miterlimit:4;stroke-opacity:1;stroke-dasharray:none;stroke-dashoffset:0;marker:none;visibility:visible;display:inline;overflow:visible"
         sodipodi:type="arc" />
      <path
         transform="matrix(0.842105,0,0,1.165992,14.28947,3.84008)"
         d="m -4.5,14.75 c 0,2.623353 -2.1266474,4.75 -4.75,4.75 -2.623353,0 -4.75,-2.126647 -4.75,-4.75 0,-2.623353 2.126647,-4.75 4.75,-4.75 2.6233526,0 4.75,2.126647 4.75,4.75 z"
         sodipodi:ry="4.75"
         sodipodi:rx="4.75"
         sodipodi:cy="14.75"
         sodipodi:cx="-9.25"
         id="path2293"
         style="opacity:0.2;color:#000000;fill:none;stroke:url(#linearGradient3380);stroke-width:1.00918198;stroke-linecap:round;stroke-linejoin:round;stroke-miterlimit:4;stroke-opacity:1;stroke-dasharray:none;stroke-dashoffset:0;marker:none;visibility:visible;display:inline;overflow:visible"
         sodipodi:type="arc" />
      <path
         transform="matrix(0.799453,0,0,0.951666,14.62707,7.030045)"
         d="m -4.5,14.75 c 0,2.623353 -2.1266474,4.75 -4.75,4.75 -2.623353,0 -4.75,-2.126647 -4.75,-4.75 0,-2.623353 2.126647,-4.75 4.75,-4.75 2.6233526,0 4.75,2.126647 4.75,4.75 z"
         sodipodi:ry="4.75"
         sodipodi:rx="4.75"
         sodipodi:cy="14.75"
         sodipodi:cx="-9.25"
         id="path2213"
         style="color:#000000;fill:url(#radialGradient3382);fill-opacity:1;fill-rule:evenodd;stroke:#50340d;stroke-width:1.14646637;stroke-linecap:round;stroke-linejoin:round;stroke-miterlimit:4;stroke-opacity:1;stroke-dasharray:none;stroke-dashoffset:0;marker:none;visibility:visible;display:inline;overflow:visible"
         sodipodi:type="arc" />
      <path
         transform="matrix(1.042104,0,0,1.368421,51.13946,0.81579)"
         d="m -4.5,14.75 c 0,2.623353 -2.1266474,4.75 -4.75,4.75 -2.623353,0 -4.75,-2.126647 -4.75,-4.75 0,-2.623353 2.126647,-4.75 4.75,-4.75 2.6233526,0 4.75,2.126647 4.75,4.75 z"
         sodipodi:ry="4.75"
         sodipodi:rx="4.75"
         sodipodi:cy="14.75"
         sodipodi:cx="-9.25"
         id="path2199"
         style="color:#000000;fill:url(#linearGradient3384);fill-opacity:1;fill-rule:evenodd;stroke:#3d280a;stroke-width:0.83740354;stroke-linecap:round;stroke-linejoin:round;stroke-miterlimit:4;stroke-opacity:1;stroke-dasharray:none;stroke-dashoffset:0;marker:none;visibility:visible;display:inline;overflow:visible"
         sodipodi:type="arc" />
      <path
         transform="matrix(0.842105,0,0,1.165992,49.28947,3.80162)"
         d="m -4.5,14.75 c 0,2.623353 -2.1266474,4.75 -4.75,4.75 -2.623353,0 -4.75,-2.126647 -4.75,-4.75 0,-2.623353 2.126647,-4.75 4.75,-4.75 2.6233526,0 4.75,2.126647 4.75,4.75 z"
         sodipodi:ry="4.75"
         sodipodi:rx="4.75"
         sodipodi:cy="14.75"
         sodipodi:cx="-9.25"
         id="path2281"
         style="opacity:0.2;color:#000000;fill:none;stroke:url(#linearGradient3386);stroke-width:1.00918198;stroke-linecap:round;stroke-linejoin:round;stroke-miterlimit:4;stroke-opacity:1;stroke-dasharray:none;stroke-dashoffset:0;marker:none;visibility:visible;display:inline;overflow:visible"
         sodipodi:type="arc" />
      <path
         transform="matrix(0.789752,0,0,0.951666,48.02639,7.030045)"
         d="m -4.5,14.75 c 0,2.623353 -2.1266474,4.75 -4.75,4.75 -2.623353,0 -4.75,-2.126647 -4.75,-4.75 0,-2.623353 2.126647,-4.75 4.75,-4.75 2.6233526,0 4.75,2.126647 4.75,4.75 z"
         sodipodi:ry="4.75"
         sodipodi:rx="4.75"
         sodipodi:cy="14.75"
         sodipodi:cx="-9.25"
         id="path2215"
         style="color:#000000;fill:url(#radialGradient3388);fill-opacity:1;fill-rule:evenodd;stroke:#50340d;stroke-width:1.15348637;stroke-linecap:round;stroke-linejoin:round;stroke-miterlimit:4;stroke-opacity:1;stroke-dasharray:none;stroke-dashoffset:0;marker:none;visibility:visible;display:inline;overflow:visible"
         sodipodi:type="arc" />
      <path
         sodipodi:nodetypes="czczc"
         id="path1314"
         d="m 37.5,23.5 c 7.5,8 0,19 -13.5,18.999981 C 10.5,42.499962 3,31.5 10.5,23.5 6.5,13 14.5,5.4999918 24,5.4999959 33.5,5.5 41.5,13 37.5,23.5 z"
         style="color:#000000;fill:url(#radialGradient3390);fill-opacity:1;fill-rule:evenodd;stroke:#3d280a;stroke-width:0.99999958;stroke-linecap:round;stroke-linejoin:round;stroke-miterlimit:4;stroke-opacity:1;stroke-dashoffset:0;marker:none;visibility:visible;display:inline;overflow:visible"
         inkscape:connector-curvature="0" />
      <path
         sodipodi:nodetypes="czczc"
         id="path2217"
         d="m 36.5,23.5 c 7,8 0.203501,18.000017 -12.500001,18 C 11.296497,41.499981 4.5,31.5 11.5,23.5 7.5,13 15.060498,6.5000053 23.999999,6.5000091 32.939499,6.500013 40.5,13 36.5,23.5 z"
         style="opacity:0.38144328;color:#000000;fill:none;stroke:url(#linearGradient3392);stroke-width:0.99999928;stroke-linecap:round;stroke-linejoin:round;stroke-miterlimit:4;stroke-opacity:1;stroke-dashoffset:0;marker:none;visibility:visible;display:inline;overflow:visible"
         inkscape:connector-curvature="0" />
      <path
         sodipodi:nodetypes="cscssscsscsc"
         id="path2190"
         d="M 17.838217,10.504844 C 14.264974,10.725244 11.5,14.102208 11.5,18.5 c 0,1.915169 0.480445,3.910093 1.384633,5.308394 C 10.771363,25.573646 9.5,27 9.5016977,30.339227 9.5045488,35.947033 15,40.5 23.999992,40.498302 33,40.496604 38.494904,35.947033 38.498287,30.339227 38.5,27 37.228622,25.573646 35.115352,23.808394 36.01954,22.410093 36.5,20.415168 36.5,18.5 c 0,-4.539658 -2.96593,-7.995156 -6.700689,-7.995156 -2.450936,0 -4.61225,1.586945 -5.799319,3.960829 -1.187068,-2.373884 -3.348382,-3.960829 -5.799318,-3.960829 -0.116711,0 -0.247191,-0.0071 -0.362457,0 z"
         style="color:#000000;fill:url(#radialGradient3394);fill-opacity:1;fill-rule:evenodd;stroke:#7a4f13;stroke-width:1.00339544;stroke-linecap:round;stroke-linejoin:round;stroke-miterlimit:4;stroke-opacity:1;stroke-dasharray:none;stroke-dashoffset:0;marker:none;visibility:visible;display:inline;overflow:visible"
         inkscape:connector-curvature="0" />
      <path
         transform="matrix(1.333333,0,0,1.428571,34.66666,11.14286)"
         d="M -9.5,7.25 C -9.5,8.2164983 -10.171573,9 -11,9 c -0.828427,0 -1.5,-0.7835017 -1.5,-1.75 0,-0.9664983 0.671573,-1.75 1.5,-1.75 0.828427,0 1.5,0.7835017 1.5,1.75 z"
         sodipodi:ry="1.75"
         sodipodi:rx="1.5"
         sodipodi:cy="7.25"
         sodipodi:cx="-11"
         id="path2201"
         style="color:#000000;fill:#000000;fill-opacity:1;fill-rule:evenodd;stroke:none;stroke-width:0.9354142;marker:none;visibility:visible;display:inline;overflow:visible"
         sodipodi:type="arc" />
      <path
         sodipodi:nodetypes="cc"
         id="path2205"
         d="m 13.499995,26.6 c 6.29277,2.4 14.683131,2.4 20.975901,0"
         style="opacity:0.88144334;fill:none;stroke:url(#radialGradient3396);stroke-width:1.00000012;stroke-linecap:round;stroke-linejoin:miter;stroke-miterlimit:4;stroke-opacity:1;stroke-dasharray:none"
         inkscape:connector-curvature="0" />
      <path
         sodipodi:nodetypes="cscssscssccc"
         id="path2313"
         d="m 18.263225,11.504636 c -3.475804,-0.09233 -5.923683,3.31225 -5.901051,7.462085 C 12.371922,20.75417 13.158177,22.69493 14,24 c -1.967512,1.647555 -3.363465,2.902907 -3.4983,6.016575 -0.22665,5.23391 4.971252,9.464175 13.498304,9.481726 8.398429,0.01729 13.646441,-4.096531 13.498306,-9.481726 C 37.412612,26.901167 35.967512,25.647555 34,24 c 0.841824,-1.30507 1.628719,-3.245826 1.637851,-5.033279 0.02176,-4.258738 -2.445472,-7.777974 -6.238523,-7.462085 C 27.125312,11.694018 26,13 25,15 c -0.5,0.5 -1.5,0.5 -2,0 -1,-2 -2,-3.5 -4.736775,-3.495364 z"
         style="opacity:0.4;color:#000000;fill:none;stroke:url(#linearGradient3398);stroke-width:1.00300002;stroke-linecap:round;stroke-linejoin:round;stroke-miterlimit:4;stroke-opacity:1;stroke-dasharray:none;stroke-dashoffset:0;marker:none;visibility:visible;display:inline;overflow:visible"
         inkscape:connector-curvature="0" />
      <path
         transform="matrix(1.333333,0,0,1.428571,42.66666,11.14286)"
         d="M -9.5,7.25 C -9.5,8.2164983 -10.171573,9 -11,9 c -0.828427,0 -1.5,-0.7835017 -1.5,-1.75 0,-0.9664983 0.671573,-1.75 1.5,-1.75 0.828427,0 1.5,0.7835017 1.5,1.75 z"
         sodipodi:ry="1.75"
         sodipodi:rx="1.5"
         sodipodi:cy="7.25"
         sodipodi:cx="-11"
         id="path2218"
         style="color:#000000;fill:#000000;fill-opacity:1;fill-rule:evenodd;stroke:none;stroke-width:0.9354142;marker:none;visibility:visible;display:inline;overflow:visible"
         sodipodi:type="arc" />
    </g>
    <g
       id="g3319"
       transform="translate(-57.665168,46.636311)">
      <path
         sodipodi:nodetypes="csscccccsscc"
         id="path2281-9"
         d="m 86.27359,37.23118 c 0,0 16.79175,0.6728 19.15972,-6.10459 1.58855,-4.5466 -5.00166,-7.36829 -5.56282,-10.44248 -0.56116,-3.07419 3.31817,-2.29344 3.31817,-2.29344 l 0.63436,1.26871 2.29344,-2.73261 -4.09891,-0.53677 0.78074,1.31751 c 0,0 -3.78174,-0.60996 -3.90373,2.68382 -0.12199,3.29377 6.65273,7.49028 4.31049,10.73526 -2.34224,3.24498 -13.67945,2.24464 -13.67945,2.24464 l -3.25201,3.85995 z"
         style="color:#000000;fill:url(#linearGradient3352);fill-opacity:1;fill-rule:evenodd;stroke:none;stroke-width:0.99999988;marker:none;visibility:visible;display:inline;overflow:visible"
         inkscape:connector-curvature="0" />
      <path
         transform="matrix(1.163647,0,0,1,54.0653,-1.07865)"
         d="m 44.42857,38.57143 c 0,3.6293 -8.826386,6.571429 -19.714285,6.571429 C 13.826386,45.142859 5,42.20073 5,38.57143 c 0,-3.6293 8.826386,-6.571429 19.714285,-6.571429 10.887899,0 19.714285,2.942129 19.714285,6.571429 z"
         sodipodi:ry="6.5714288"
         sodipodi:rx="19.714285"
         sodipodi:cy="38.57143"
         sodipodi:cx="24.714285"
         id="path4563"
         style="opacity:0.53164559;color:#000000;fill:url(#radialGradient3354);fill-opacity:1;fill-rule:evenodd;stroke:none;stroke-width:0.40487173;marker:none;visibility:visible;display:inline;overflow:visible"
         sodipodi:type="arc" />
      <path
         transform="matrix(2.083142,0,0,2.083142,14.3364,-16.7754)"
         d="m 39.774755,19.008621 c 0,4.783923 -3.878135,8.662058 -8.662057,8.662058 -4.783923,0 -8.662058,-3.878135 -8.662058,-8.662058 0,-4.783922 3.878135,-8.662058 8.662058,-8.662058 4.783922,0 8.662057,3.878136 8.662057,8.662058 z"
         sodipodi:ry="8.6620579"
         sodipodi:rx="8.6620579"
         sodipodi:cy="19.008621"
         sodipodi:cx="31.112698"
         id="path4320"
         style="color:#000000;fill:url(#radialGradient3356);fill-opacity:1;fill-rule:evenodd;stroke:#a40000;stroke-width:0.48004404;stroke-linecap:round;stroke-linejoin:round;stroke-miterlimit:4;stroke-opacity:1;stroke-dasharray:none;stroke-dashoffset:0;marker:none;visibility:visible;display:inline;overflow:visible"
         sodipodi:type="arc" />
      <path
         transform="matrix(1.979782,0,0,1.979782,17.55227,-14.81062)"
         sodipodi:type="arc"
         style="opacity:0.43181823;color:#000000;fill:none;stroke:url(#linearGradient3358);stroke-width:0.50510627;stroke-linecap:round;stroke-linejoin:round;stroke-miterlimit:4;stroke-opacity:1;stroke-dasharray:none;stroke-dashoffset:0;marker:none;visibility:visible;display:inline;overflow:visible"
         id="path4322"
         sodipodi:cx="31.112698"
         sodipodi:cy="19.008621"
         sodipodi:rx="8.6620579"
         sodipodi:ry="8.6620579"
         d="m 39.774755,19.008621 c 0,4.783923 -3.878135,8.662058 -8.662057,8.662058 -4.783923,0 -8.662058,-3.878135 -8.662058,-8.662058 0,-4.783922 3.878135,-8.662058 8.662058,-8.662058 4.783922,0 8.662057,3.878136 8.662057,8.662058 z" />
      <path
         transform="matrix(-0.965926,-0.258819,0.258819,-0.965926,79.41797,16.91815)"
         sodipodi:open="true"
         sodipodi:end="2.6179939"
         sodipodi:start="0"
         d="m -0.875,1.875 c 0,1.5878187 -1.3151635,2.875 -2.9375,2.875 -1.0494677,0 -2.0192158,-0.5479719 -2.5439497,-1.4375001"
         sodipodi:ry="2.875"
         sodipodi:rx="2.9375"
         sodipodi:cy="1.875"
         sodipodi:cx="-3.8125"
         id="path1364"
         style="fill:none;stroke:#000000;stroke-width:1;stroke-linecap:butt;stroke-miterlimit:4;stroke-opacity:1;stroke-dasharray:none;stroke-dashoffset:0"
         sodipodi:type="arc" />
      <path
         sodipodi:type="arc"
         style="fill:none;stroke:#000000;stroke-width:1;stroke-linecap:butt;stroke-miterlimit:4;stroke-opacity:1;stroke-dasharray:none;stroke-dashoffset:0"
         id="path2094"
         sodipodi:cx="-3.8125"
         sodipodi:cy="1.875"
         sodipodi:rx="2.9375"
         sodipodi:ry="2.875"
         d="m -0.875,1.875 c 0,1.5878187 -1.3151635,2.875 -2.9375,2.875 -1.0494677,0 -2.0192158,-0.5479719 -2.5439497,-1.4375001"
         sodipodi:start="0"
         sodipodi:end="2.6179939"
         sodipodi:open="true"
         transform="matrix(-0.965926,-0.258819,0.258819,-0.965926,70.66797,16.91815)" />
      <path
         style="color:#000000;fill:url(#linearGradient3360);fill-opacity:1;fill-rule:nonzero;stroke:none;stroke-width:1.00000012;marker:none;visibility:visible;display:inline;overflow:visible"
         d="m 64.07107,20.76161 c -1.53898,7.56738 4.69204,17.16753 14.85115,17.16753 10.2475,0 16.50553,-8.43043 14.72004,-17.10503 l -29.57119,-0.0625 z"
         id="path2096"
         sodipodi:nodetypes="czcc"
         inkscape:connector-curvature="0" />
      <path
         style="opacity:0.18181817;fill:none;stroke:url(#linearGradient3362);stroke-width:0.99999988px;stroke-linecap:square;stroke-linejoin:miter;stroke-opacity:1"
         d="m 79.38353,21.2455 0,16.85428"
         id="path2110"
         inkscape:connector-curvature="0" />
      <path
         id="path2114"
         d="m 71.38353,21.18548 0,14.06274"
         style="opacity:0.18181817;fill:none;stroke:url(#linearGradient3364);stroke-width:1.00000024px;stroke-linecap:square;stroke-linejoin:miter;stroke-opacity:1"
         inkscape:connector-curvature="0" />
      <path
         style="opacity:0.18181817;fill:none;stroke:url(#linearGradient3366);stroke-width:1.00000048px;stroke-linecap:square;stroke-linejoin:miter;stroke-opacity:1"
         d="m 87.38353,21.25795 0,13.9178"
         id="path2118"
         inkscape:connector-curvature="0" />
      <path
         sodipodi:nodetypes="czcc"
         id="path2756"
         d="m 64.32448,20.33271 c -1.78066,8.82192 5.15901,18.0878 14.80906,18.0878 10.00354,0 16.65221,-9.57838 14.37156,-18.1503 l -29.18062,0.0625 z"
         style="color:#000000;fill:none;stroke:#a40000;stroke-width:0.99999994;stroke-linecap:butt;stroke-linejoin:miter;stroke-miterlimit:4;stroke-opacity:1;stroke-dasharray:none;stroke-dashoffset:0;marker:none;visibility:visible;display:inline;overflow:visible"
         inkscape:connector-curvature="0" />
      <path
         sodipodi:nodetypes="cccssccsc"
         id="path2276"
         d="m 93.37345,4.44993 c -0.12567,0.0235 -0.24628,0.0687 -0.35642,0.13366 l -5.97002,3.2746 c -0.30832,0.17677 -0.62054,0.49735 -0.54765,0.84519 0.43718,2.08632 2.08394,3.51346 4.30405,3.76338 0.33417,0.0376 0.61194,-0.2775 0.76567,-0.57658 L 94.53181,6.03154 C 94.71793,5.66221 94.68127,5.21972 94.43691,4.88606 94.19255,4.5524 93.78174,4.38393 93.37347,4.44993 z"
         style="color:#000000;fill:url(#linearGradient3368);fill-opacity:1;fill-rule:evenodd;stroke:#a40000;stroke-width:0.99999946;stroke-linecap:round;stroke-linejoin:round;stroke-miterlimit:4;stroke-opacity:1;stroke-dashoffset:0;marker:none;visibility:visible;display:inline;overflow:visible"
         inkscape:connector-curvature="0" />
      <path
         style="color:#000000;fill:url(#linearGradient3370);fill-opacity:1;fill-rule:evenodd;stroke:#a40000;stroke-width:0.99999946;stroke-linecap:round;stroke-linejoin:round;stroke-miterlimit:4;stroke-opacity:1;stroke-dasharray:none;stroke-dashoffset:0;marker:none;visibility:visible;display:inline;overflow:visible"
         d="m 65.76476,4.57493 c 0.12567,0.0235 0.24628,0.0687 0.35642,0.13366 l 5.97002,3.2746 c 0.30831,0.17677 0.62054,0.49735 0.54765,0.84519 -0.43719,2.08632 -2.08394,3.51346 -4.30405,3.76338 -0.33417,0.0376 -0.61195,-0.2775 -0.76567,-0.57658 L 64.6064,6.15654 C 64.42028,5.78721 64.45694,5.34472 64.7013,5.01106 64.94567,4.6774 65.35647,4.50893 65.76475,4.57493 z"
         id="path2279"
         sodipodi:nodetypes="cccssccsc"
         inkscape:connector-curvature="0" />
      <path
         style="opacity:0.64772728;color:#000000;fill:none;stroke:url(#linearGradient3372);stroke-width:0.99999946;stroke-linecap:round;stroke-linejoin:round;stroke-miterlimit:4;stroke-opacity:1;stroke-dashoffset:0;marker:none;visibility:visible;display:inline;overflow:visible"
         d="M 93.38819,5.51304 87.7809,8.55001 c -0.19102,0.12219 -0.24209,0.12566 -0.17969,0.36327 0.28011,1.06652 1.6615,2.2519 2.73211,2.51305 0.22583,0.0551 0.42301,-0.0813 0.52927,-0.28808 l 2.7551,-5.50819 c 0.12865,-0.2553 -0.15337,-0.16189 -0.2295,-0.11702 z"
         id="path2299"
         sodipodi:nodetypes="ccssccc"
         inkscape:connector-curvature="0" />
      <path
         sodipodi:nodetypes="ccssccc"
         id="path2301"
         d="m 65.74156,5.68982 5.60728,3.03697 c 0.19103,0.12219 0.2421,0.12565 0.1797,0.36327 -0.28011,1.06651 -1.6615,2.2519 -2.73211,2.51305 -0.22583,0.0551 -0.42301,-0.0813 -0.52927,-0.28808 l -2.7551,-5.5082 c -0.12865,-0.25529 0.15337,-0.16188 0.2295,-0.11701 z"
         style="opacity:0.64772728;color:#000000;fill:none;stroke:url(#linearGradient3374);stroke-width:0.99999946;stroke-linecap:round;stroke-linejoin:round;stroke-miterlimit:4;stroke-opacity:1;stroke-dasharray:none;stroke-dashoffset:0;marker:none;visibility:visible;display:inline;overflow:visible"
         inkscape:connector-curvature="0" />
    </g>
  </g>
</svg>
