<?xml version="1.0" encoding="UTF-8" standalone="no"?>
<svg
   xmlns:dc="http://purl.org/dc/elements/1.1/"
   xmlns:cc="http://creativecommons.org/ns#"
   xmlns:rdf="http://www.w3.org/1999/02/22-rdf-syntax-ns#"
   xmlns:svg="http://www.w3.org/2000/svg"
   xmlns="http://www.w3.org/2000/svg"
   xmlns:xlink="http://www.w3.org/1999/xlink"
   version="1.1"
   id="Layer_1"
   x="0px"
   y="0px"
   viewBox="0 0 512 512"
   style="enable-background:new 0 0 512 512;"
   xml:space="preserve"><metadata
   id="metadata49"><rdf:RDF><cc:Work
       rdf:about=""><dc:format>image/svg+xml</dc:format><dc:type
         rdf:resource="http://purl.org/dc/dcmitype/StillImage" /><dc:title></dc:title></cc:Work></rdf:RDF></metadata><defs
   id="defs47"><linearGradient
     id="linearGradient898"><stop
       style="stop-color:#dd2500;stop-opacity:1"
       offset="0"
       id="stop894" /><stop
       style="stop-color:#ffdb06;stop-opacity:1"
       offset="1"
       id="stop896" /></linearGradient><linearGradient
     xlink:href="#linearGradient898"
     id="linearGradient900"
     x1="239.44168"
     y1="273.35794"
     x2="177.1067"
     y2="2.1715057"
     gradientUnits="userSpaceOnUse" /></defs>
<polygon
   style="fill:#d6a141;fill-opacity:1"
   points="376.811,187.88 256.003,512 29.001,384.007 29.001,127.997 "
   id="polygon2" />
<polygon
   style="mix-blend-mode:normal;fill:url(#linearGradient900);fill-opacity:1"
   points="256.003,256.002 256.003,512 483.005,127.997 256.003,0.004 29.001,127.997 "
   id="polygon4" />
<polygon
   style="fill:#F2CA7F;"
   points="256.003,256.002 256.003,512 483.005,384.007 483.005,127.997 "
   id="polygon6" />
<polygon
   style="fill:#898686;"
   points="402.959,270.659 369.019,247.073 333.995,309.437 359.779,294.939 359.779,400.591   377.722,390.471 377.722,284.849 "
   id="polygon8" />
<polygon
   style="fill:#E0B76E;"
   points="321.283,159.537 94.281,31.535 28.995,128.001 255.998,256.003 "
   id="polygon10" />
<polygon
   style="fill:#F2CA7F;"
   points="378.72,130.136 151.716,2.134 255.998,0 483.002,128.001 "
   id="polygon12" />
<g
   id="g14">
</g>
<g
   id="g16">
</g>
<g
   id="g18">
</g>
<g
   id="g20">
</g>
<g
   id="g22">
</g>
<g
   id="g24">
</g>
<g
   id="g26">
</g>
<g
   id="g28">
</g>
<g
   id="g30">
</g>
<g
   id="g32">
</g>
<g
   id="g34">
</g>
<g
   id="g36">
</g>
<g
   id="g38">
</g>
<g
   id="g40">
</g>
<g
   id="g42">
</g>
<g
   aria-label="S"
   transform="matrix(1.1340352,0.68803834,0,1.0110784,-647.61509,-808.33846)"
   id="text856"
   style="font-style:normal;font-weight:normal;font-size:175.2px;line-height:109.5px;font-family:sans-serif;letter-spacing:0px;word-spacing:0px;fill:#6c6c6c;fill-opacity:1;stroke:none;stroke-width:4.38"><path
     d="m 752.17732,664.09357 q 0,7.44258 -3.50742,14.71406 -3.42188,7.27148 -9.6668,12.31875 -6.84375,5.475 -15.99727,8.55469 -9.06797,3.07968 -21.9,3.07968 -13.77304,0 -24.80859,-2.5664 -10.95,-2.56641 -22.32773,-7.61367 v -21.21563 h 1.19765 q 9.6668,8.04141 22.32774,12.4043 12.66093,4.36289 23.78203,4.36289 15.74062,0 24.4664,-5.90274 8.81133,-5.90273 8.81133,-15.74062 0,-8.46914 -4.1918,-12.48984 -4.10625,-4.02071 -12.57539,-6.24493 -6.41601,-1.71093 -13.94414,-2.82304 -7.44257,-1.11211 -15.82617,-2.82305 -16.93828,-3.59297 -25.15078,-12.2332 -8.12695,-8.72578 -8.12695,-22.66992 0,-15.99727 13.5164,-26.17735 13.51641,-10.26562 34.3043,-10.26562 13.43086,0 24.6375,2.5664 11.20664,2.56641 19.84688,6.33047 v 20.01797 h -1.19766 q -7.27149,-6.15937 -19.1625,-10.18008 -11.80547,-4.10625 -24.20977,-4.10625 -13.60195,0 -21.9,5.6461 -8.2125,5.64609 -8.2125,14.54297 0,7.95586 4.10625,12.48984 4.10625,4.53398 14.45743,6.9293 5.475,1.19765 15.56953,2.90859 10.09453,1.71094 17.10937,3.50742 14.20078,3.76406 21.38672,11.37774 7.18594,7.61367 7.18594,21.30117 z"
     style="stroke-width:4.38;fill:#6c6c6c;fill-opacity:1"
     id="path861" /></g></svg>
